<?xml version="1.0" standalone="no"?>
<!DOCTYPE svg PUBLIC "-//W3C//DTD SVG 20010904//EN"
 "http://www.w3.org/TR/2001/REC-SVG-20010904/DTD/svg10.dtd">
<svg version="1.0" xmlns="http://www.w3.org/2000/svg"
 width="2753.000000pt" height="1835.000000pt" viewBox="0 0 2753.000000 1835.000000"
 preserveAspectRatio="xMidYMid meet">
<metadata>
Created by potrace 1.16, written by Peter Selinger 2001-2019
</metadata>
<g transform="translate(0.000000,1835.000000) scale(0.100000,-0.100000)"
fill="#000000" stroke="none">
<path d="M10 9180 l0 -9170 13755 0 13755 0 0 9170 0 9170 -13755 0 -13755 0
0 -9170z m13957 4643 c50 -27 87 -73 102 -128 14 -52 15 -955 1 -1006 -17 -59
-52 -102 -105 -129 l-50 -25 -1277 -5 -1278 -5 -27 -28 -28 -27 -3 -973 c-2
-680 0 -983 8 -1010 22 -77 -46 -71 982 -77 l917 -5 -378 -655 -378 -655 -539
-5 c-498 -5 -542 -6 -567 -23 -16 -10 -32 -29 -37 -43 -6 -16 -10 -396 -10
-976 l0 -950 -736 -1277 c-405 -702 -740 -1280 -745 -1285 -5 -5 147 352 337
795 190 442 348 812 351 822 5 16 -12 17 -268 17 -158 0 -290 5 -311 10 -49
14 -93 52 -121 104 l-22 41 0 3680 0 3680 23 46 c27 55 81 96 143 108 24 5
923 8 2009 7 l1965 -1 42 -22z m698 -813 c-190 -443 -345 -808 -345 -812 0 -4
732 -9 1628 -10 1625 -3 1627 -3 1672 -24 64 -29 106 -81 120 -147 7 -37 10
-201 8 -518 -3 -508 -3 -502 -64 -562 -65 -65 -24 -61 -859 -67 -418 -3 -768
-9 -777 -13 -9 -5 -25 -21 -35 -35 -17 -26 -18 -156 -23 -3097 l-5 -3070 -27
-47 c-21 -35 -41 -53 -81 -73 l-53 -26 -600 3 -599 3 -43 25 c-27 15 -54 42
-70 70 l-27 45 -5 3065 c-5 2842 -6 3067 -22 3096 -9 16 -28 35 -43 42 -19 9
-169 12 -566 12 -363 0 -540 3 -537 10 5 16 1693 2938 1695 2936 2 -1 -153
-364 -342 -806z"/>
</g>
</svg>
